<svg width="30" height="30" viewBox="0 0 30 30" fill="none" xmlns="http://www.w3.org/2000/svg">
<path d="M28.4683 7.97097C28.1442 6.76608 27.1942 5.81628 25.9895 5.49184C23.7887 4.88965 14.985 4.88965 14.985 4.88965C14.985 4.88965 6.18169 4.88965 3.98082 5.46901C2.79927 5.7931 1.82613 6.76625 1.50203 7.97097C0.922844 10.1717 0.922844 14.7356 0.922844 14.7356C0.922844 14.7356 0.922844 19.3226 1.50203 21.5003C1.82647 22.705 2.7761 23.6548 3.98099 23.9792C6.20486 24.5816 14.9853 24.5816 14.9853 24.5816C14.9853 24.5816 23.7887 24.5816 25.9895 24.0023C27.1944 23.678 28.1442 22.7282 28.4687 21.5235C29.0477 19.3226 29.0477 14.7588 29.0477 14.7588C29.0477 14.7588 29.0708 10.1717 28.4683 7.97097ZM12.1821 18.952V10.5193L19.5028 14.7356L12.1821 18.952Z" fill="black"/>
</svg>
