<svg width="30" height="30" viewBox="0 0 30 30" fill="none" xmlns="http://www.w3.org/2000/svg">
<path d="M21.8792 0H8.12071C3.64288 0 0 3.64288 0 8.12071V21.8795C0 26.3571 3.64288 29.9999 8.12071 29.9999H21.8795C26.3571 29.9999 29.9999 26.3571 29.9999 21.8795V8.12071C29.9999 3.64288 26.3571 0 21.8792 0V0ZM15 23.2029C10.4768 23.2029 6.79709 19.5231 6.79709 15C6.79709 10.4768 10.4768 6.79709 15 6.79709C19.5231 6.79709 23.2029 10.4768 23.2029 15C23.2029 19.5231 19.5231 23.2029 15 23.2029ZM23.399 8.7316C22.0623 8.7316 20.9751 7.64441 20.9751 6.30774C20.9751 4.97108 22.0623 3.88366 23.399 3.88366C24.7357 3.88366 25.8231 4.97108 25.8231 6.30774C25.8231 7.64441 24.7357 8.7316 23.399 8.7316Z" fill="black"/>
<path d="M15 8.55566C11.4468 8.55566 8.55582 11.4464 8.55582 14.9998C8.55582 18.553 11.4468 21.444 15 21.444C18.5534 21.444 21.4441 18.553 21.4441 14.9998C21.4441 11.4464 18.5534 8.55566 15 8.55566Z" fill="black"/>
<path d="M23.399 5.64258C23.0323 5.64258 22.7339 5.94104 22.7339 6.30771C22.7339 6.67438 23.0323 6.97284 23.399 6.97284C23.7659 6.97284 24.0644 6.6746 24.0644 6.30771C24.0644 5.94081 23.7659 5.64258 23.399 5.64258Z" fill="black"/>
</svg>
