<svg width="30" height="30" viewBox="0 0 30 30" fill="none" xmlns="http://www.w3.org/2000/svg">
<path d="M15.9825 29C8.36066 29 3.05367 25.1559 4.14138 12.0619C4.54414 12.8627 5.80881 14.5846 7.6454 15.0651C9.94113 15.6657 10.7869 16.867 11.3911 19.1495C11.9952 21.4319 13.3243 22.6332 15.9825 22.6332C18.6407 22.6332 19.3657 20.8313 19.7282 19.8702C20.0907 18.9092 20.0907 15.906 22.9905 15.3053C25.3104 14.8248 26.4543 13.2632 26.7362 12.5424C28.3067 24.7955 22.6279 29 15.9825 29Z" fill="black"/>
<path d="M11.3911 4.85415V16.7469C10.9077 16.0261 9.43339 14.4404 7.40348 13.8638C5.37357 13.2872 4.38295 11.1409 4.14138 10.1398V2.45158C4.02047 1.77085 4.55199 0.577575 7.6454 1.2503C10.7388 1.92302 11.4314 3.93317 11.3911 4.85415Z" fill="black"/>
<path d="M19.7282 5.33464V17.2274C20.4534 15.3053 21.5404 14.5846 23.4736 13.8638C25.0202 13.2871 26.2931 11.5413 26.7362 10.7405V2.2113C26.7362 0.889882 25.4069 0.649625 22.507 1.49053C20.1871 2.16325 19.6878 4.33357 19.7282 5.33464Z" fill="black"/>
</svg>
