<svg width="33" height="33" viewBox="0 0 33 33" fill="none" xmlns="http://www.w3.org/2000/svg">
<path d="M32.9232 12.8366L32.9235 12.8365L32.9133 12.7519C32.9132 12.7505 32.9131 12.7493 32.9129 12.7479C32.9128 12.7467 32.9126 12.7456 32.9124 12.7443L32.8741 12.4263C32.8665 12.3624 32.8577 12.2896 32.8477 12.2066L32.8396 12.1405L32.8233 12.1425C32.4208 9.85319 31.315 7.68062 29.6024 5.82556C27.8978 3.97941 25.6832 2.52176 23.198 1.6102C21.0687 0.829179 18.8095 0.433105 16.4832 0.433105C13.3427 0.433105 10.2926 1.17172 7.66285 2.56906C2.59179 5.26345 -0.398962 10.216 0.0430736 15.1863C0.271882 17.7583 1.27948 20.2065 2.95704 22.2666C4.53599 24.2056 6.67194 25.7703 9.13385 26.7916C10.6476 27.4194 12.1443 27.7154 13.729 28.0286L13.9146 28.0654C14.3509 28.1517 14.4682 28.2703 14.4985 28.3173C14.5545 28.4046 14.5252 28.5765 14.5027 28.6712C14.482 28.7586 14.4607 28.8457 14.4393 28.933C14.2691 29.6268 14.0932 30.3444 14.2314 31.1356C14.3903 32.045 14.9582 32.5666 15.7895 32.5667C15.7897 32.5667 15.7897 32.5667 15.7898 32.5667C16.684 32.5667 17.7017 31.9669 18.3751 31.57L18.465 31.5172C20.0716 30.5737 21.5851 29.5094 22.7241 28.6877C25.2166 26.8894 28.0418 24.851 30.1598 22.2141C32.2927 19.5582 33.2974 16.1453 32.9232 12.8366ZM10.2767 17.8684H7.4297C6.99946 17.8684 6.65069 17.5196 6.65069 17.0894V11.1136C6.65069 10.6834 6.99946 10.3346 7.4297 10.3346C7.85994 10.3346 8.20872 10.6834 8.20872 11.1136V16.3103H10.2766C10.7068 16.3103 11.0556 16.6591 11.0556 17.0894C11.0557 17.5196 10.7069 17.8684 10.2767 17.8684ZM13.2466 17.0682C13.2466 17.4984 12.8978 17.8472 12.4676 17.8472C12.0374 17.8472 11.6886 17.4984 11.6886 17.0682V11.0925C11.6886 10.6623 12.0374 10.3135 12.4676 10.3135C12.8978 10.3135 13.2466 10.6623 13.2466 11.0925V17.0682ZM20.2882 17.0682C20.2882 17.4057 20.0709 17.7049 19.7498 17.8092C19.6706 17.8349 19.5895 17.8473 19.5093 17.8473C19.2646 17.8473 19.0282 17.7317 18.8788 17.5259L16.0736 13.6624V17.0683C16.0736 17.4986 15.7248 17.8473 15.2945 17.8473C14.8643 17.8473 14.5155 17.4986 14.5155 17.0683V11.2635C14.5155 10.926 14.7329 10.6269 15.0539 10.5226C15.3751 10.4184 15.7267 10.5326 15.925 10.8058L18.7302 14.6694V11.0925C18.7302 10.6623 19.079 10.3135 19.5092 10.3135C19.9395 10.3135 20.2882 10.6623 20.2882 11.0925V17.0682ZM25.9647 17.7246H22.1091C21.6789 17.7246 21.3301 17.3758 21.3301 16.9456V13.9578V10.9699C21.3301 10.5396 21.6789 10.1908 22.1091 10.1908H25.8451C26.2753 10.1908 26.6241 10.5396 26.6241 10.9699C26.6241 11.4001 26.2753 11.7489 25.8451 11.7489H22.8882V13.1788H25.2877C25.718 13.1788 26.0668 13.5276 26.0668 13.9578C26.0668 14.3881 25.718 14.7368 25.2877 14.7368H22.8882V16.1666H25.9647C26.395 16.1666 26.7437 16.5153 26.7437 16.9456C26.7437 17.3758 26.395 17.7246 25.9647 17.7246Z" fill="#FF511D"/>
</svg>
