<svg width="260" height="92" viewBox="0 0 260 92" fill="none" xmlns="http://www.w3.org/2000/svg">
<path d="M109.989 48.5326C109.501 48.1674 109.014 47.8428 108.526 47.5181C94.7873 38.0226 87.4304 30.8401 89.422 17.4084C89.544 16.8403 89.6659 16.2316 89.7472 15.623C89.7878 15.136 89.8285 14.6896 89.8285 14.2027C89.8285 6.33034 83.4877 0 75.6429 0C67.7982 0 61.4573 6.33034 61.4573 14.1621C61.4573 14.2838 61.4573 14.4056 61.4573 14.5273C61.4573 27.5938 48.3692 25.8895 48.3692 25.8895C47.8001 25.7677 47.2311 25.7272 46.662 25.7272C46.662 25.7272 36.5004 25.5243 35.1185 15.5824C34.4681 10.9969 30.5254 7.46656 25.7698 7.46656C20.5671 7.46656 16.2992 11.6868 16.2992 16.9215C16.2992 17.5302 16.3805 18.1389 16.4618 18.7475C16.4618 18.7475 16.4618 18.7475 16.4618 18.7881C16.4618 18.8287 16.4618 18.8693 16.5024 18.9099C19.8761 32.8691 6.1376 42.5269 6.1376 42.5269C2.43878 45.0428 0 49.3036 0 54.1325C0 61.9643 6.34084 68.2946 14.1856 68.2946C22.0303 68.2946 28.3712 61.9643 28.3712 54.1325C28.3712 52.2253 28.0054 50.4398 27.3144 48.7761C26.2875 43.5196 26.5642 38.8961 27.3932 35.0758C28.4329 30.2849 34.5987 28.0058 36.476 32.5347C36.8689 33.4825 37.1367 34.5742 37.2321 35.8314C37.5979 40.7414 41.6625 44.5964 46.662 44.5964C50.3609 44.5964 53.5719 42.4458 55.1165 39.3212C56.4648 36.9016 58.1858 35.0114 60.0508 33.5336C64.056 30.3598 69.6168 33.0205 70.7095 38.0125C72.2543 45.0704 72.6433 53.5903 71.7409 64.3179C71.5783 65.4135 71.497 66.5497 71.497 67.7265C71.497 80.9959 82.2683 91.7494 95.5596 91.7494C108.851 91.7494 119.622 80.9959 119.622 67.7265C119.663 59.8948 115.883 52.9152 109.989 48.5326Z" fill="url(#paint0_linear)"/>
<path d="M163.423 17.989C158.949 17.989 156.097 19.2752 153.357 22.0712C151.344 19.443 148.212 17.989 144.689 17.989C141.166 17.989 139.041 18.9956 137.196 20.785V18.6601H131.38V44.9425H137.196V26.9922C139.041 24.3639 141.334 23.2455 143.515 23.2455C147.709 23.2455 150.169 25.8179 150.169 30.627V44.9425H155.929V30.2915C155.929 29.1731 155.817 28.1106 155.594 27.104C157.551 24.2521 159.955 23.2455 162.248 23.2455C166.442 23.2455 168.903 25.8179 168.903 30.627V44.9425H174.662V30.2915C174.662 22.6863 169.797 17.989 163.423 17.989Z" fill="#F6511D"/>
<path d="M185.749 12.5648C187.762 12.5648 189.439 11.0549 189.439 8.98591C189.439 6.91686 187.762 5.40702 185.749 5.40702C183.68 5.40702 182.058 6.91686 182.058 8.98591C182.058 11.0549 183.68 12.5648 185.749 12.5648ZM182.897 18.6601V44.9425H188.656V18.6601H182.897Z" fill="#F6511D"/>
<path d="M197.512 5.23926V44.9425H203.328V5.23926H197.512Z" fill="#F6511D"/>
<path d="M223.859 17.989C215.918 17.989 209.879 23.8607 209.879 31.8013C209.879 39.7979 215.918 45.6136 223.859 45.6136C231.799 45.6136 237.839 39.7979 237.839 31.8013C237.839 23.8607 231.799 17.989 223.859 17.989ZM223.859 40.3571C219.049 40.3571 215.694 36.6664 215.694 31.8013C215.694 27.0481 219.049 23.2455 223.859 23.2455C228.668 23.2455 232.023 27.0481 232.023 31.8013C232.023 36.6664 228.668 40.3571 223.859 40.3571Z" fill="#F6511D"/>
<path d="M246.02 17.989C238.079 17.989 232.04 23.8607 232.04 31.8013C232.04 39.7979 238.079 45.6136 246.02 45.6136C253.961 45.6136 260 39.7979 260 31.8013C260 23.8607 253.961 17.989 246.02 17.989ZM246.02 40.3571C241.211 40.3571 237.856 36.6664 237.856 31.8013C237.856 27.0481 241.211 23.2455 246.02 23.2455C250.829 23.2455 254.184 27.0481 254.184 31.8013C254.184 36.6664 250.829 40.3571 246.02 40.3571Z" fill="#F6511D"/>
<path d="M148.755 55.7334L148.777 56.2607C149.126 55.8506 149.596 55.6455 150.188 55.6455C150.853 55.6455 151.305 55.9004 151.546 56.4102C151.704 56.1816 151.909 55.9971 152.161 55.8564C152.416 55.7158 152.716 55.6455 153.062 55.6455C154.105 55.6455 154.635 56.1978 154.653 57.3022V60.4883H153.84V57.3506C153.84 57.0107 153.762 56.7573 153.607 56.5903C153.451 56.4204 153.191 56.3354 152.825 56.3354C152.523 56.3354 152.272 56.4263 152.073 56.6079C151.874 56.7866 151.758 57.0283 151.726 57.333V60.4883H150.909V57.3726C150.909 56.6812 150.57 56.3354 149.893 56.3354C149.36 56.3354 148.995 56.5625 148.799 57.0166V60.4883H147.986V55.7334H148.755ZM156.766 60.4883H155.953V55.7334H156.766V60.4883ZM155.888 54.4722C155.888 54.3403 155.927 54.229 156.006 54.1382C156.088 54.0474 156.208 54.002 156.367 54.002C156.525 54.002 156.645 54.0474 156.727 54.1382C156.809 54.229 156.85 54.3403 156.85 54.4722C156.85 54.604 156.809 54.7139 156.727 54.8018C156.645 54.8896 156.525 54.9336 156.367 54.9336C156.208 54.9336 156.088 54.8896 156.006 54.8018C155.927 54.7139 155.888 54.604 155.888 54.4722ZM158.955 60.4883H158.142V53.7383H158.955V60.4883ZM161.143 60.4883H160.33V53.7383H161.143V60.4883ZM164.422 60.5762C163.777 60.5762 163.253 60.3652 162.848 59.9434C162.444 59.5186 162.242 58.9517 162.242 58.2427V58.0933C162.242 57.6216 162.331 57.2012 162.51 56.832C162.692 56.46 162.944 56.1699 163.266 55.9619C163.591 55.751 163.943 55.6455 164.321 55.6455C164.939 55.6455 165.419 55.8491 165.762 56.2563C166.105 56.6636 166.276 57.2466 166.276 58.0054V58.3438H163.055C163.067 58.8125 163.203 59.1919 163.464 59.4819C163.727 59.769 164.061 59.9126 164.466 59.9126C164.753 59.9126 164.996 59.854 165.195 59.7368C165.394 59.6196 165.569 59.4644 165.718 59.271L166.215 59.6577C165.816 60.27 165.219 60.5762 164.422 60.5762ZM164.321 56.3135C163.993 56.3135 163.717 56.4336 163.494 56.6738C163.272 56.9111 163.134 57.2451 163.081 57.6758H165.463V57.6143C165.44 57.2012 165.328 56.8818 165.129 56.6562C164.93 56.4277 164.66 56.3135 164.321 56.3135ZM167.99 55.7334L168.016 56.3311C168.38 55.874 168.854 55.6455 169.44 55.6455C170.445 55.6455 170.952 56.2124 170.961 57.3462V60.4883H170.148V57.3418C170.145 56.999 170.066 56.7456 169.91 56.5815C169.758 56.4175 169.519 56.3354 169.194 56.3354C168.93 56.3354 168.699 56.4058 168.5 56.5464C168.301 56.687 168.145 56.8716 168.034 57.1001V60.4883H167.221V55.7334H167.99ZM173.07 60.4883H172.257V55.7334H173.07V60.4883ZM172.191 54.4722C172.191 54.3403 172.231 54.229 172.31 54.1382C172.392 54.0474 172.512 54.002 172.67 54.002C172.828 54.002 172.949 54.0474 173.031 54.1382C173.113 54.229 173.154 54.3403 173.154 54.4722C173.154 54.604 173.113 54.7139 173.031 54.8018C172.949 54.8896 172.828 54.9336 172.67 54.9336C172.512 54.9336 172.392 54.8896 172.31 54.8018C172.231 54.7139 172.191 54.604 172.191 54.4722ZM177.311 60.4883C177.264 60.3945 177.226 60.2275 177.197 59.9873C176.819 60.3799 176.368 60.5762 175.843 60.5762C175.374 60.5762 174.989 60.4443 174.687 60.1807C174.388 59.9141 174.239 59.5771 174.239 59.1699C174.239 58.6748 174.427 58.291 174.802 58.0186C175.18 57.7432 175.71 57.6055 176.392 57.6055H177.183V57.2319C177.183 56.9478 177.098 56.7222 176.929 56.5552C176.759 56.3853 176.508 56.3003 176.177 56.3003C175.887 56.3003 175.644 56.3735 175.448 56.52C175.251 56.6665 175.153 56.8438 175.153 57.0518H174.336C174.336 56.8145 174.419 56.5859 174.586 56.3662C174.756 56.1436 174.985 55.9678 175.272 55.8389C175.562 55.71 175.88 55.6455 176.225 55.6455C176.773 55.6455 177.202 55.7832 177.513 56.0586C177.824 56.3311 177.985 56.7075 177.996 57.188V59.3765C177.996 59.813 178.052 60.1602 178.163 60.418V60.4883H177.311ZM175.962 59.8687C176.217 59.8687 176.458 59.8027 176.687 59.6709C176.915 59.5391 177.081 59.3677 177.183 59.1567V58.1812H176.546C175.55 58.1812 175.052 58.4727 175.052 59.0557C175.052 59.3105 175.137 59.5098 175.307 59.6533C175.477 59.7969 175.695 59.8687 175.962 59.8687ZM180.154 60.4883H179.341V53.7383H180.154V60.4883ZM184.228 59.2271C184.228 59.0073 184.144 58.8374 183.977 58.7173C183.813 58.5942 183.525 58.4888 183.112 58.4009C182.701 58.313 182.375 58.2075 182.132 58.0845C181.891 57.9614 181.713 57.8149 181.596 57.645C181.481 57.4751 181.424 57.2729 181.424 57.0386C181.424 56.6489 181.588 56.3193 181.916 56.0498C182.247 55.7803 182.669 55.6455 183.182 55.6455C183.721 55.6455 184.158 55.7847 184.492 56.063C184.828 56.3413 184.997 56.6973 184.997 57.1309H184.18C184.18 56.9082 184.084 56.7163 183.894 56.5552C183.706 56.394 183.469 56.3135 183.182 56.3135C182.886 56.3135 182.655 56.3779 182.488 56.5068C182.321 56.6357 182.237 56.8042 182.237 57.0122C182.237 57.2085 182.315 57.3564 182.47 57.4561C182.625 57.5557 182.905 57.6509 183.309 57.7417C183.717 57.8325 184.046 57.9409 184.298 58.0669C184.55 58.1929 184.736 58.3452 184.856 58.5239C184.979 58.6997 185.041 58.915 185.041 59.1699C185.041 59.5947 184.871 59.936 184.531 60.1938C184.191 60.4487 183.75 60.5762 183.208 60.5762C182.827 60.5762 182.491 60.5088 182.198 60.374C181.905 60.2393 181.675 60.0518 181.508 59.8115C181.344 59.5684 181.262 59.3062 181.262 59.0249H182.075C182.089 59.2974 182.198 59.5142 182.4 59.6753C182.605 59.8335 182.874 59.9126 183.208 59.9126C183.516 59.9126 183.762 59.8511 183.947 59.728C184.134 59.6021 184.228 59.4351 184.228 59.2271ZM188.117 58.0669C188.117 57.6011 188.208 57.1821 188.389 56.8101C188.574 56.438 188.829 56.1509 189.154 55.9487C189.482 55.7466 189.856 55.6455 190.275 55.6455C190.922 55.6455 191.445 55.8696 191.844 56.3179C192.245 56.7661 192.446 57.3623 192.446 58.1064V58.1636C192.446 58.6265 192.356 59.0425 192.178 59.4116C192.002 59.7778 191.748 60.0635 191.417 60.2686C191.089 60.4736 190.711 60.5762 190.284 60.5762C189.639 60.5762 189.116 60.3521 188.715 59.9038C188.316 59.4556 188.117 58.8623 188.117 58.124V58.0669ZM188.934 58.1636C188.934 58.6909 189.056 59.1143 189.299 59.4336C189.545 59.7529 189.873 59.9126 190.284 59.9126C190.697 59.9126 191.025 59.7515 191.268 59.4292C191.511 59.104 191.633 58.6499 191.633 58.0669C191.633 57.5454 191.508 57.1235 191.259 56.8013C191.013 56.4761 190.685 56.3135 190.275 56.3135C189.873 56.3135 189.55 56.4731 189.304 56.7925C189.057 57.1118 188.934 57.5688 188.934 58.1636ZM196.401 60.0181C196.084 60.3901 195.62 60.5762 195.008 60.5762C194.501 60.5762 194.114 60.4297 193.847 60.1367C193.584 59.8408 193.451 59.4043 193.448 58.8271V55.7334H194.261V58.8052C194.261 59.5259 194.554 59.8862 195.139 59.8862C195.761 59.8862 196.174 59.6548 196.379 59.1919V55.7334H197.192V60.4883H196.418L196.401 60.0181ZM199.534 54.582V55.7334H200.422V56.3618H199.534V59.3105C199.534 59.501 199.574 59.6445 199.653 59.7412C199.732 59.835 199.867 59.8818 200.057 59.8818C200.151 59.8818 200.28 59.8643 200.444 59.8291V60.4883C200.23 60.5469 200.022 60.5762 199.82 60.5762C199.456 60.5762 199.182 60.4663 198.998 60.2466C198.813 60.0269 198.721 59.7148 198.721 59.3105V56.3618H197.855V55.7334H198.721V54.582H199.534ZM204.144 59.2271C204.144 59.0073 204.06 58.8374 203.893 58.7173C203.729 58.5942 203.441 58.4888 203.028 58.4009C202.618 58.313 202.291 58.2075 202.048 58.0845C201.807 57.9614 201.629 57.8149 201.512 57.645C201.397 57.4751 201.34 57.2729 201.34 57.0386C201.34 56.6489 201.504 56.3193 201.832 56.0498C202.163 55.7803 202.585 55.6455 203.098 55.6455C203.637 55.6455 204.074 55.7847 204.408 56.063C204.744 56.3413 204.913 56.6973 204.913 57.1309H204.096C204.096 56.9082 204 56.7163 203.81 56.5552C203.622 56.394 203.385 56.3135 203.098 56.3135C202.802 56.3135 202.571 56.3779 202.404 56.5068C202.237 56.6357 202.153 56.8042 202.153 57.0122C202.153 57.2085 202.231 57.3564 202.386 57.4561C202.541 57.5557 202.821 57.6509 203.225 57.7417C203.633 57.8325 203.962 57.9409 204.214 58.0669C204.466 58.1929 204.652 58.3452 204.772 58.5239C204.895 58.6997 204.957 58.915 204.957 59.1699C204.957 59.5947 204.787 59.936 204.447 60.1938C204.107 60.4487 203.666 60.5762 203.124 60.5762C202.743 60.5762 202.407 60.5088 202.114 60.374C201.821 60.2393 201.591 60.0518 201.424 59.8115C201.26 59.5684 201.178 59.3062 201.178 59.0249H201.991C202.005 59.2974 202.114 59.5142 202.316 59.6753C202.521 59.8335 202.79 59.9126 203.124 59.9126C203.432 59.9126 203.678 59.8511 203.863 59.728C204.05 59.6021 204.144 59.4351 204.144 59.2271ZM207.119 54.582V55.7334H208.007V56.3618H207.119V59.3105C207.119 59.501 207.159 59.6445 207.238 59.7412C207.317 59.835 207.451 59.8818 207.642 59.8818C207.736 59.8818 207.865 59.8643 208.029 59.8291V60.4883C207.815 60.5469 207.607 60.5762 207.405 60.5762C207.041 60.5762 206.767 60.4663 206.583 60.2466C206.398 60.0269 206.306 59.7148 206.306 59.3105V56.3618H205.44V55.7334H206.306V54.582H207.119ZM211.896 60.4883C211.849 60.3945 211.811 60.2275 211.782 59.9873C211.404 60.3799 210.952 60.5762 210.428 60.5762C209.959 60.5762 209.574 60.4443 209.272 60.1807C208.973 59.9141 208.824 59.5771 208.824 59.1699C208.824 58.6748 209.012 58.291 209.387 58.0186C209.764 57.7432 210.295 57.6055 210.977 57.6055H211.768V57.2319C211.768 56.9478 211.683 56.7222 211.513 56.5552C211.344 56.3853 211.093 56.3003 210.762 56.3003C210.472 56.3003 210.229 56.3735 210.033 56.52C209.836 56.6665 209.738 56.8438 209.738 57.0518H208.921C208.921 56.8145 209.004 56.5859 209.171 56.3662C209.341 56.1436 209.57 55.9678 209.857 55.8389C210.147 55.71 210.465 55.6455 210.81 55.6455C211.358 55.6455 211.787 55.7832 212.098 56.0586C212.409 56.3311 212.57 56.7075 212.581 57.188V59.3765C212.581 59.813 212.637 60.1602 212.748 60.418V60.4883H211.896ZM210.547 59.8687C210.802 59.8687 211.043 59.8027 211.272 59.6709C211.5 59.5391 211.666 59.3677 211.768 59.1567V58.1812H211.131C210.135 58.1812 209.637 58.4727 209.637 59.0557C209.637 59.3105 209.722 59.5098 209.892 59.6533C210.062 59.7969 210.28 59.8687 210.547 59.8687ZM214.625 55.7334L214.651 56.3311C215.014 55.874 215.489 55.6455 216.075 55.6455C217.08 55.6455 217.587 56.2124 217.596 57.3462V60.4883H216.783V57.3418C216.78 56.999 216.701 56.7456 216.545 56.5815C216.393 56.4175 216.154 56.3354 215.829 56.3354C215.565 56.3354 215.334 56.4058 215.135 56.5464C214.935 56.687 214.78 56.8716 214.669 57.1001V60.4883H213.856V55.7334H214.625ZM218.624 58.0713C218.624 57.3418 218.797 56.7559 219.142 56.3135C219.488 55.8682 219.941 55.6455 220.5 55.6455C221.057 55.6455 221.498 55.8359 221.823 56.2168V53.7383H222.636V60.4883H221.889L221.849 59.9785C221.524 60.377 221.072 60.5762 220.492 60.5762C219.941 60.5762 219.491 60.3506 219.142 59.8994C218.797 59.4482 218.624 58.8594 218.624 58.1328V58.0713ZM219.437 58.1636C219.437 58.7026 219.548 59.1245 219.771 59.4292C219.993 59.7339 220.301 59.8862 220.694 59.8862C221.209 59.8862 221.586 59.6548 221.823 59.1919V57.0078C221.58 56.5596 221.206 56.3354 220.702 56.3354C220.304 56.3354 219.993 56.4893 219.771 56.7969C219.548 57.1045 219.437 57.5601 219.437 58.1636ZM224.785 60.4883H223.972V55.7334H224.785V60.4883ZM223.906 54.4722C223.906 54.3403 223.946 54.229 224.025 54.1382C224.107 54.0474 224.227 54.002 224.385 54.002C224.543 54.002 224.663 54.0474 224.745 54.1382C224.827 54.229 224.868 54.3403 224.868 54.4722C224.868 54.604 224.827 54.7139 224.745 54.8018C224.663 54.8896 224.543 54.9336 224.385 54.9336C224.227 54.9336 224.107 54.8896 224.025 54.8018C223.946 54.7139 223.906 54.604 223.906 54.4722ZM226.859 55.7334L226.886 56.3311C227.249 55.874 227.723 55.6455 228.309 55.6455C229.314 55.6455 229.821 56.2124 229.83 57.3462V60.4883H229.017V57.3418C229.014 56.999 228.935 56.7456 228.78 56.5815C228.627 56.4175 228.388 56.3354 228.063 56.3354C227.8 56.3354 227.568 56.4058 227.369 56.5464C227.17 56.687 227.014 56.8716 226.903 57.1001V60.4883H226.09V55.7334H226.859ZM230.863 58.0713C230.863 57.3301 231.034 56.7412 231.377 56.3047C231.72 55.8652 232.174 55.6455 232.739 55.6455C233.319 55.6455 233.772 55.8506 234.097 56.2607L234.137 55.7334H234.879V60.374C234.879 60.9893 234.696 61.4741 234.33 61.8286C233.967 62.1831 233.477 62.3604 232.862 62.3604C232.519 62.3604 232.184 62.2871 231.856 62.1406C231.528 61.9941 231.277 61.7935 231.104 61.5386L231.526 61.0508C231.875 61.4814 232.301 61.6968 232.805 61.6968C233.201 61.6968 233.508 61.5854 233.728 61.3628C233.951 61.1401 234.062 60.8267 234.062 60.4224V60.0137C233.737 60.3887 233.293 60.5762 232.73 60.5762C232.174 60.5762 231.722 60.3521 231.377 59.9038C231.034 59.4556 230.863 58.8447 230.863 58.0713ZM231.68 58.1636C231.68 58.6997 231.79 59.1216 232.01 59.4292C232.229 59.7339 232.537 59.8862 232.932 59.8862C233.445 59.8862 233.822 59.6533 234.062 59.1875V57.0166C233.813 56.5625 233.439 56.3354 232.941 56.3354C232.546 56.3354 232.237 56.4893 232.014 56.7969C231.791 57.1045 231.68 57.5601 231.68 58.1636ZM166.94 69.0669C166.94 68.6011 167.031 68.1821 167.212 67.8101C167.397 67.438 167.652 67.1509 167.977 66.9487C168.305 66.7466 168.679 66.6455 169.097 66.6455C169.745 66.6455 170.268 66.8696 170.666 67.3179C171.068 67.7661 171.268 68.3623 171.268 69.1064V69.1636C171.268 69.6265 171.179 70.0425 171 70.4116C170.825 70.7778 170.571 71.0635 170.24 71.2686C169.912 71.4736 169.534 71.5762 169.106 71.5762C168.462 71.5762 167.939 71.3521 167.537 70.9038C167.139 70.4556 166.94 69.8623 166.94 69.124V69.0669ZM167.757 69.1636C167.757 69.6909 167.879 70.1143 168.122 70.4336C168.368 70.7529 168.696 70.9126 169.106 70.9126C169.519 70.9126 169.847 70.7515 170.091 70.4292C170.334 70.104 170.455 69.6499 170.455 69.0669C170.455 68.5454 170.331 68.1235 170.082 67.8013C169.836 67.4761 169.508 67.3135 169.097 67.3135C168.696 67.3135 168.372 67.4731 168.126 67.7925C167.88 68.1118 167.757 68.5688 167.757 69.1636ZM174.586 67.4629C174.463 67.4424 174.33 67.4321 174.186 67.4321C173.653 67.4321 173.291 67.6592 173.101 68.1133V71.4883H172.288V66.7334H173.079L173.092 67.2827C173.359 66.8579 173.737 66.6455 174.226 66.6455C174.384 66.6455 174.504 66.666 174.586 66.707V67.4629ZM175.056 69.0713C175.056 68.3301 175.228 67.7412 175.571 67.3047C175.913 66.8652 176.368 66.6455 176.933 66.6455C177.513 66.6455 177.966 66.8506 178.291 67.2607L178.33 66.7334H179.073V71.374C179.073 71.9893 178.89 72.4741 178.524 72.8286C178.16 73.1831 177.671 73.3604 177.056 73.3604C176.713 73.3604 176.378 73.2871 176.05 73.1406C175.722 72.9941 175.471 72.7935 175.298 72.5386L175.72 72.0508C176.069 72.4814 176.495 72.6968 176.999 72.6968C177.394 72.6968 177.702 72.5854 177.922 72.3628C178.144 72.1401 178.256 71.8267 178.256 71.4224V71.0137C177.93 71.3887 177.487 71.5762 176.924 71.5762C176.368 71.5762 175.916 71.3521 175.571 70.9038C175.228 70.4556 175.056 69.8447 175.056 69.0713ZM175.874 69.1636C175.874 69.6997 175.984 70.1216 176.203 70.4292C176.423 70.7339 176.731 70.8862 177.126 70.8862C177.639 70.8862 178.015 70.6533 178.256 70.1875V68.0166C178.007 67.5625 177.633 67.3354 177.135 67.3354C176.74 67.3354 176.43 67.4893 176.208 67.7969C175.985 68.1045 175.874 68.5601 175.874 69.1636ZM183.239 71.4883C183.192 71.3945 183.154 71.2275 183.125 70.9873C182.747 71.3799 182.296 71.5762 181.771 71.5762C181.303 71.5762 180.917 71.4443 180.616 71.1807C180.317 70.9141 180.167 70.5771 180.167 70.1699C180.167 69.6748 180.355 69.291 180.73 69.0186C181.108 68.7432 181.638 68.6055 182.321 68.6055H183.112V68.2319C183.112 67.9478 183.027 67.7222 182.857 67.5552C182.687 67.3853 182.436 67.3003 182.105 67.3003C181.815 67.3003 181.572 67.3735 181.376 67.52C181.18 67.6665 181.081 67.8438 181.081 68.0518H180.264C180.264 67.8145 180.347 67.5859 180.514 67.3662C180.684 67.1436 180.913 66.9678 181.2 66.8389C181.49 66.71 181.808 66.6455 182.154 66.6455C182.701 66.6455 183.131 66.7832 183.441 67.0586C183.752 67.3311 183.913 67.7075 183.925 68.188V70.3765C183.925 70.813 183.98 71.1602 184.092 71.418V71.4883H183.239ZM181.89 70.8687C182.145 70.8687 182.387 70.8027 182.615 70.6709C182.844 70.5391 183.009 70.3677 183.112 70.1567V69.1812H182.474C181.478 69.1812 180.98 69.4727 180.98 70.0557C180.98 70.3105 181.065 70.5098 181.235 70.6533C181.405 70.7969 181.623 70.8687 181.89 70.8687ZM185.968 66.7334L185.994 67.3311C186.358 66.874 186.832 66.6455 187.418 66.6455C188.423 66.6455 188.93 67.2124 188.939 68.3462V71.4883H188.126V68.3418C188.123 67.999 188.044 67.7456 187.888 67.5815C187.736 67.4175 187.497 67.3354 187.172 67.3354C186.909 67.3354 186.677 67.4058 186.478 67.5464C186.279 67.687 186.123 67.8716 186.012 68.1001V71.4883H185.199V66.7334H185.968ZM191.048 71.4883H190.235V66.7334H191.048V71.4883ZM190.169 65.4722C190.169 65.3403 190.209 65.229 190.288 65.1382C190.37 65.0474 190.49 65.002 190.648 65.002C190.806 65.002 190.927 65.0474 191.009 65.1382C191.091 65.229 191.132 65.3403 191.132 65.4722C191.132 65.604 191.091 65.7139 191.009 65.8018C190.927 65.8896 190.806 65.9336 190.648 65.9336C190.49 65.9336 190.37 65.8896 190.288 65.8018C190.209 65.7139 190.169 65.604 190.169 65.4722ZM193.118 70.8247H195.9V71.4883H192.125V70.8906L194.748 67.4058H192.164V66.7334H195.768V67.3091L193.118 70.8247ZM199.754 71.4883C199.707 71.3945 199.669 71.2275 199.639 70.9873C199.262 71.3799 198.81 71.5762 198.286 71.5762C197.817 71.5762 197.432 71.4443 197.13 71.1807C196.831 70.9141 196.682 70.5771 196.682 70.1699C196.682 69.6748 196.869 69.291 197.244 69.0186C197.622 68.7432 198.153 68.6055 198.835 68.6055H199.626V68.2319C199.626 67.9478 199.541 67.7222 199.371 67.5552C199.201 67.3853 198.951 67.3003 198.62 67.3003C198.33 67.3003 198.087 67.3735 197.89 67.52C197.694 67.6665 197.596 67.8438 197.596 68.0518H196.779C196.779 67.8145 196.862 67.5859 197.029 67.3662C197.199 67.1436 197.428 66.9678 197.715 66.8389C198.005 66.71 198.323 66.6455 198.668 66.6455C199.216 66.6455 199.645 66.7832 199.956 67.0586C200.266 67.3311 200.428 67.7075 200.439 68.188V70.3765C200.439 70.813 200.495 71.1602 200.606 71.418V71.4883H199.754ZM198.405 70.8687C198.659 70.8687 198.901 70.8027 199.13 70.6709C199.358 70.5391 199.524 70.3677 199.626 70.1567V69.1812H198.989C197.993 69.1812 197.495 69.4727 197.495 70.0557C197.495 70.3105 197.58 70.5098 197.75 70.6533C197.92 70.7969 198.138 70.8687 198.405 70.8687ZM202.817 65.582V66.7334H203.704V67.3618H202.817V70.3105C202.817 70.501 202.856 70.6445 202.935 70.7412C203.014 70.835 203.149 70.8818 203.34 70.8818C203.433 70.8818 203.562 70.8643 203.726 70.8291V71.4883C203.513 71.5469 203.305 71.5762 203.102 71.5762C202.739 71.5762 202.465 71.4663 202.281 71.2466C202.096 71.0269 202.004 70.7148 202.004 70.3105V67.3618H201.138V66.7334H202.004V65.582H202.817ZM205.541 71.4883H204.728V66.7334H205.541V71.4883ZM204.662 65.4722C204.662 65.3403 204.702 65.229 204.781 65.1382C204.863 65.0474 204.983 65.002 205.141 65.002C205.3 65.002 205.42 65.0474 205.502 65.1382C205.584 65.229 205.625 65.3403 205.625 65.4722C205.625 65.604 205.584 65.7139 205.502 65.8018C205.42 65.8896 205.3 65.9336 205.141 65.9336C204.983 65.9336 204.863 65.8896 204.781 65.8018C204.702 65.7139 204.662 65.604 204.662 65.4722ZM206.631 69.0669C206.631 68.6011 206.722 68.1821 206.904 67.8101C207.088 67.438 207.343 67.1509 207.668 66.9487C207.996 66.7466 208.37 66.6455 208.789 66.6455C209.436 66.6455 209.959 66.8696 210.358 67.3179C210.759 67.7661 210.96 68.3623 210.96 69.1064V69.1636C210.96 69.6265 210.87 70.0425 210.692 70.4116C210.516 70.7778 210.263 71.0635 209.931 71.2686C209.603 71.4736 209.225 71.5762 208.798 71.5762C208.153 71.5762 207.63 71.3521 207.229 70.9038C206.83 70.4556 206.631 69.8623 206.631 69.124V69.0669ZM207.449 69.1636C207.449 69.6909 207.57 70.1143 207.813 70.4336C208.059 70.7529 208.388 70.9126 208.798 70.9126C209.211 70.9126 209.539 70.7515 209.782 70.4292C210.025 70.104 210.147 69.6499 210.147 69.0669C210.147 68.5454 210.022 68.1235 209.773 67.8013C209.527 67.4761 209.199 67.3135 208.789 67.3135C208.388 67.3135 208.064 67.4731 207.818 67.7925C207.572 68.1118 207.449 68.5688 207.449 69.1636ZM212.748 66.7334L212.775 67.3311C213.138 66.874 213.613 66.6455 214.199 66.6455C215.203 66.6455 215.71 67.2124 215.719 68.3462V71.4883H214.906V68.3418C214.903 67.999 214.824 67.7456 214.669 67.5815C214.516 67.4175 214.278 67.3354 213.952 67.3354C213.689 67.3354 213.457 67.4058 213.258 67.5464C213.059 67.687 212.904 67.8716 212.792 68.1001V71.4883H211.979V66.7334H212.748Z" fill="#F6511D"/>
<defs>
<linearGradient id="paint0_linear" x1="0" y1="45.8964" x2="119.675" y2="45.8964" gradientUnits="userSpaceOnUse">
<stop stop-color="#FFB400"/>
<stop offset="1" stop-color="#F6511D"/>
</linearGradient>
</defs>
</svg>
