<svg width="128" height="44" viewBox="0 0 128 44" fill="none" xmlns="http://www.w3.org/2000/svg">
<path d="M52.1943 23.0689C51.9629 22.8953 51.7314 22.741 51.5 22.5867C44.9805 18.0732 41.4893 14.6592 42.4344 8.27471C42.4923 8.00467 42.5502 7.71535 42.5887 7.42602C42.608 7.19456 42.6273 6.98239 42.6273 6.75093C42.6273 3.00899 39.6183 0 35.8957 0C32.173 0 29.164 3.00899 29.164 6.73164C29.164 6.78951 29.164 6.84737 29.164 6.90524C29.164 13.1161 22.9532 12.306 22.9532 12.306C22.6831 12.2481 22.4131 12.2288 22.1431 12.2288C22.1431 12.2288 17.321 12.1324 16.6652 7.40674C16.3565 5.22715 14.4856 3.54906 12.2288 3.54906C9.75992 3.54906 7.73464 5.55505 7.73464 8.04325C7.73464 8.33258 7.77321 8.6219 7.81179 8.91123C7.81179 8.91123 7.81179 8.91123 7.81179 8.93052C7.81179 8.94981 7.81179 8.96909 7.83108 8.98838C9.43201 15.6236 2.91254 20.2142 2.91254 20.2142C1.1573 21.4101 0 23.4354 0 25.7307C0 29.4533 3.00899 32.4623 6.73164 32.4623C10.4543 32.4623 13.4633 29.4533 13.4633 25.7307C13.4633 24.8241 13.2897 23.9754 12.9618 23.1846C12.0552 18.5361 13.2897 14.9292 14.3698 12.8846C15.7972 13.3668 17.4753 14.4856 17.6681 17.0316C17.8417 19.3655 19.7706 21.1979 22.1431 21.1979C23.8983 21.1979 25.4221 20.1756 26.155 18.6904C27.6788 15.9515 30.2056 14.6399 32.2695 14.0034C34.0054 18.0539 34.6612 23.2232 34.044 30.5721C33.9668 31.0929 33.9282 31.6329 33.9282 32.1923C33.9282 38.4996 39.0397 43.611 45.347 43.611C51.6543 43.611 56.7657 38.4996 56.7657 32.1923C56.785 28.4696 54.9912 25.152 52.1943 23.0689Z" fill="#FF511D"/>
<path d="M79.881 10.5059C77.652 10.5059 76.2311 11.1467 74.8659 12.5398C73.8628 11.2303 72.3026 10.5059 70.5473 10.5059C68.792 10.5059 67.7333 11.0074 66.8138 11.899V10.8402H63.9162V23.9352H66.8138V14.9916C67.7333 13.6821 68.8756 13.1249 69.9622 13.1249C72.0518 13.1249 73.2778 14.4065 73.2778 16.8026V23.9352H76.1475V16.6355C76.1475 16.0782 76.0918 15.5488 75.9803 15.0473C76.9555 13.6264 78.1536 13.1249 79.2959 13.1249C81.3855 13.1249 82.6114 14.4065 82.6114 16.8026V23.9352H85.4812V16.6355C85.4812 12.8463 83.0572 10.5059 79.881 10.5059Z" fill="#FF511D"/>
<path d="M91.0048 7.80327C92.0078 7.80327 92.8437 7.05101 92.8437 6.02012C92.8437 4.98924 92.0078 4.23697 91.0048 4.23697C89.9739 4.23697 89.1659 4.98924 89.1659 6.02012C89.1659 7.05101 89.9739 7.80327 91.0048 7.80327ZM89.5838 10.8402V23.9352H92.4536V10.8402H89.5838Z" fill="#FF511D"/>
<path d="M96.866 4.15338V23.9352H99.7636V4.15338H96.866Z" fill="#FF511D"/>
<path d="M109.993 10.5059C106.036 10.5059 103.027 13.4314 103.027 17.3877C103.027 21.372 106.036 24.2696 109.993 24.2696C113.949 24.2696 116.958 21.372 116.958 17.3877C116.958 13.4314 113.949 10.5059 109.993 10.5059ZM109.993 21.6506C107.597 21.6506 105.925 19.8117 105.925 17.3877C105.925 15.0195 107.597 13.1249 109.993 13.1249C112.389 13.1249 114.061 15.0195 114.061 17.3877C114.061 19.8117 112.389 21.6506 109.993 21.6506Z" fill="#FF511D"/>
<path d="M121.035 10.5059C117.078 10.5059 114.069 13.4314 114.069 17.3877C114.069 21.372 117.078 24.2696 121.035 24.2696C124.991 24.2696 128 21.372 128 17.3877C128 13.4314 124.991 10.5059 121.035 10.5059ZM121.035 21.6506C118.638 21.6506 116.967 19.8117 116.967 17.3877C116.967 15.0195 118.638 13.1249 121.035 13.1249C123.431 13.1249 125.102 15.0195 125.102 17.3877C125.102 19.8117 123.431 21.6506 121.035 21.6506Z" fill="#FF511D"/>
<path opacity="0.5" d="M73.3842 28.7342L73.3964 29.0272C73.5901 28.7993 73.8513 28.6854 74.1801 28.6854C74.5496 28.6854 74.801 28.827 74.9345 29.1102C75.0224 28.9832 75.1363 28.8807 75.2763 28.8026C75.4179 28.7244 75.5847 28.6854 75.7768 28.6854C76.3562 28.6854 76.6508 28.9922 76.6606 29.6058V31.3758H76.2089V29.6326C76.2089 29.4438 76.1658 29.303 76.0795 29.2103C75.9932 29.1159 75.8484 29.0687 75.6449 29.0687C75.4773 29.0687 75.3381 29.1191 75.2274 29.22C75.1168 29.3193 75.0525 29.4536 75.0346 29.6229V31.3758H74.5805V29.6448C74.5805 29.2607 74.3925 29.0687 74.0165 29.0687C73.7203 29.0687 73.5176 29.1948 73.4086 29.4471V31.3758H72.9569V28.7342H73.3842ZM77.8349 31.3758H77.3832V28.7342H77.8349V31.3758ZM77.3466 28.0335C77.3466 27.9603 77.3686 27.8984 77.4125 27.848C77.4581 27.7975 77.5248 27.7723 77.6127 27.7723C77.7006 27.7723 77.7673 27.7975 77.8129 27.848C77.8585 27.8984 77.8813 27.9603 77.8813 28.0335C77.8813 28.1068 77.8585 28.1678 77.8129 28.2166C77.7673 28.2654 77.7006 28.2899 77.6127 28.2899C77.5248 28.2899 77.4581 28.2654 77.4125 28.2166C77.3686 28.1678 77.3466 28.1068 77.3466 28.0335ZM79.0507 31.3758H78.599V27.6258H79.0507V31.3758ZM80.2665 31.3758H79.8148V27.6258H80.2665V31.3758ZM82.0878 31.4246C81.7297 31.4246 81.4384 31.3074 81.2138 31.0731C80.9892 30.8371 80.8769 30.5221 80.8769 30.1282V30.0452C80.8769 29.7832 80.9265 29.5496 81.0258 29.3445C81.1267 29.1378 81.2667 28.9767 81.4457 28.8611C81.6264 28.744 81.8217 28.6854 82.0316 28.6854C82.3751 28.6854 82.642 28.7985 82.8324 29.0247C83.0229 29.251 83.1181 29.5748 83.1181 29.9964V30.1844H81.3285C81.335 30.4448 81.4107 30.6556 81.5556 30.8167C81.7021 30.9762 81.8876 31.056 82.1122 31.056C82.2717 31.056 82.4068 31.0234 82.5175 30.9583C82.6282 30.8932 82.725 30.8069 82.808 30.6995L83.0839 30.9144C82.8625 31.2545 82.5305 31.4246 82.0878 31.4246ZM82.0316 29.0565C81.8494 29.0565 81.6964 29.1232 81.5727 29.2567C81.449 29.3885 81.3725 29.574 81.3432 29.8133H82.6664V29.7791C82.6534 29.5496 82.5915 29.3722 82.4809 29.2469C82.3702 29.1199 82.2204 29.0565 82.0316 29.0565ZM84.0702 28.7342L84.0849 29.0662C84.2867 28.8123 84.5504 28.6854 84.8759 28.6854C85.4342 28.6854 85.7157 29.0003 85.7206 29.6302V31.3758H85.269V29.6277C85.2673 29.4373 85.2234 29.2965 85.1371 29.2054C85.0525 29.1142 84.9198 29.0687 84.7392 29.0687C84.5927 29.0687 84.4641 29.1077 84.3534 29.1859C84.2427 29.264 84.1565 29.3665 84.0946 29.4935V31.3758H83.643V28.7342H84.0702ZM86.8925 31.3758H86.4408V28.7342H86.8925V31.3758ZM86.4042 28.0335C86.4042 27.9603 86.4262 27.8984 86.4701 27.848C86.5157 27.7975 86.5824 27.7723 86.6703 27.7723C86.7582 27.7723 86.8249 27.7975 86.8705 27.848C86.9161 27.8984 86.9389 27.9603 86.9389 28.0335C86.9389 28.1068 86.9161 28.1678 86.8705 28.2166C86.8249 28.2654 86.7582 28.2899 86.6703 28.2899C86.5824 28.2899 86.5157 28.2654 86.4701 28.2166C86.4262 28.1678 86.4042 28.1068 86.4042 28.0335ZM89.2484 31.3758C89.2224 31.3237 89.2012 31.2309 89.185 31.0975C88.975 31.3156 88.7244 31.4246 88.433 31.4246C88.1726 31.4246 87.9586 31.3514 87.7909 31.2049C87.6249 31.0568 87.5419 30.8696 87.5419 30.6434C87.5419 30.3683 87.6461 30.1551 87.8544 30.0037C88.0644 29.8507 88.359 29.7742 88.7382 29.7742H89.1776V29.5667C89.1776 29.4088 89.1304 29.2835 89.036 29.1907C88.9416 29.0963 88.8025 29.0491 88.6186 29.0491C88.4574 29.0491 88.3223 29.0898 88.2133 29.1712C88.1042 29.2526 88.0497 29.3511 88.0497 29.4666H87.5956C87.5956 29.3348 87.642 29.2078 87.7348 29.0858C87.8292 28.9621 87.9561 28.8644 88.1156 28.7928C88.2768 28.7212 88.4534 28.6854 88.6454 28.6854C88.9498 28.6854 89.1882 28.7619 89.3607 28.9149C89.5333 29.0662 89.6228 29.2754 89.6293 29.5423V30.7581C89.6293 31.0006 89.6602 31.1935 89.7221 31.3367V31.3758H89.2484ZM88.4989 31.0316C88.6405 31.0316 88.7748 30.9949 88.9018 30.9217C89.0287 30.8484 89.1207 30.7532 89.1776 30.636V30.0941H88.8236C88.2703 30.0941 87.9936 30.256 87.9936 30.5799C87.9936 30.7215 88.0408 30.8322 88.1352 30.9119C88.2296 30.9917 88.3508 31.0316 88.4989 31.0316ZM90.828 31.3758H90.3764V27.6258H90.828V31.3758ZM92.6737 30.0306C92.6737 29.7718 92.7242 29.539 92.8251 29.3323C92.9276 29.1256 93.0692 28.9661 93.2499 28.8538C93.4322 28.7415 93.6397 28.6854 93.8725 28.6854C94.2322 28.6854 94.5227 28.8099 94.744 29.0589C94.967 29.3079 95.0785 29.6391 95.0785 30.0526V30.0843C95.0785 30.3415 95.0289 30.5726 94.9296 30.7776C94.8319 30.9811 94.6912 31.1398 94.5072 31.2537C94.3249 31.3677 94.115 31.4246 93.8773 31.4246C93.5193 31.4246 93.2287 31.3001 93.0058 31.0511C92.7844 30.8021 92.6737 30.4725 92.6737 30.0623V30.0306ZM93.1278 30.0843C93.1278 30.3773 93.1954 30.6124 93.3305 30.7899C93.4672 30.9673 93.6495 31.056 93.8773 31.056C94.1068 31.056 94.2891 30.9665 94.4242 30.7874C94.5593 30.6068 94.6269 30.3545 94.6269 30.0306C94.6269 29.7409 94.5577 29.5065 94.4193 29.3275C94.2826 29.1468 94.1003 29.0565 93.8725 29.0565C93.6495 29.0565 93.4696 29.1452 93.3329 29.3226C93.1962 29.5 93.1278 29.7539 93.1278 30.0843ZM97.2758 31.1146C97.1 31.3213 96.842 31.4246 96.5019 31.4246C96.2203 31.4246 96.0054 31.3432 95.8573 31.1805C95.7108 31.0161 95.6368 30.7736 95.6352 30.4529V28.7342H96.0868V30.4407C96.0868 30.8411 96.2496 31.0413 96.5751 31.0413C96.9202 31.0413 97.1496 30.9127 97.2636 30.6556V28.7342H97.7152V31.3758H97.2856L97.2758 31.1146ZM99.0165 28.0945V28.7342H99.5097V29.0833H99.0165V30.7215C99.0165 30.8273 99.0385 30.907 99.0824 30.9608C99.1264 31.0128 99.2012 31.0389 99.307 31.0389C99.3591 31.0389 99.4307 31.0291 99.5219 31.0096V31.3758C99.4031 31.4083 99.2875 31.4246 99.1752 31.4246C98.9734 31.4246 98.8212 31.3636 98.7187 31.2415C98.6161 31.1194 98.5648 30.9461 98.5648 30.7215V29.0833H98.0839V28.7342H98.5648V28.0945H99.0165ZM101.578 30.6751C101.578 30.553 101.531 30.4586 101.438 30.3919C101.347 30.3235 101.187 30.265 100.957 30.2161C100.73 30.1673 100.548 30.1087 100.413 30.0403C100.28 29.972 100.18 29.8906 100.115 29.7962C100.052 29.7018 100.02 29.5895 100.02 29.4593C100.02 29.2428 100.111 29.0597 100.293 28.91C100.477 28.7602 100.712 28.6854 100.996 28.6854C101.296 28.6854 101.538 28.7627 101.724 28.9173C101.911 29.0719 102.005 29.2697 102.005 29.5106H101.551C101.551 29.3869 101.498 29.2803 101.392 29.1907C101.288 29.1012 101.156 29.0565 100.996 29.0565C100.832 29.0565 100.704 29.0923 100.611 29.1639C100.518 29.2355 100.472 29.3291 100.472 29.4446C100.472 29.5537 100.515 29.6359 100.601 29.6912C100.687 29.7466 100.843 29.7995 101.067 29.8499C101.294 29.9004 101.477 29.9606 101.617 30.0306C101.757 30.1006 101.86 30.1852 101.927 30.2845C101.995 30.3821 102.029 30.5018 102.029 30.6434C102.029 30.8794 101.935 31.069 101.746 31.2122C101.557 31.3538 101.312 31.4246 101.011 31.4246C100.8 31.4246 100.612 31.3872 100.45 31.3123C100.287 31.2374 100.159 31.1333 100.066 30.9998C99.9752 30.8647 99.9296 30.7191 99.9296 30.5628H100.381C100.389 30.7142 100.45 30.8346 100.562 30.9241C100.676 31.012 100.826 31.056 101.011 31.056C101.182 31.056 101.319 31.0218 101.421 30.9534C101.525 30.8834 101.578 30.7907 101.578 30.6751ZM103.23 28.0945V28.7342H103.724V29.0833H103.23V30.7215C103.23 30.8273 103.252 30.907 103.296 30.9608C103.34 31.0128 103.415 31.0389 103.521 31.0389C103.573 31.0389 103.645 31.0291 103.736 31.0096V31.3758C103.617 31.4083 103.501 31.4246 103.389 31.4246C103.187 31.4246 103.035 31.3636 102.933 31.2415C102.83 31.1194 102.779 30.9461 102.779 30.7215V29.0833H102.298V28.7342H102.779V28.0945H103.23ZM105.884 31.3758C105.858 31.3237 105.837 31.2309 105.821 31.0975C105.611 31.3156 105.36 31.4246 105.069 31.4246C104.808 31.4246 104.594 31.3514 104.427 31.2049C104.261 31.0568 104.178 30.8696 104.178 30.6434C104.178 30.3683 104.282 30.1551 104.49 30.0037C104.7 29.8507 104.995 29.7742 105.374 29.7742H105.813V29.5667C105.813 29.4088 105.766 29.2835 105.672 29.1907C105.577 29.0963 105.438 29.0491 105.254 29.0491C105.093 29.0491 104.958 29.0898 104.849 29.1712C104.74 29.2526 104.685 29.3511 104.685 29.4666H104.231C104.231 29.3348 104.278 29.2078 104.371 29.0858C104.465 28.9621 104.592 28.8644 104.751 28.7928C104.913 28.7212 105.089 28.6854 105.281 28.6854C105.586 28.6854 105.824 28.7619 105.996 28.9149C106.169 29.0662 106.259 29.2754 106.265 29.5423V30.7581C106.265 31.0006 106.296 31.1935 106.358 31.3367V31.3758H105.884ZM105.135 31.0316C105.276 31.0316 105.411 30.9949 105.538 30.9217C105.664 30.8484 105.756 30.7532 105.813 30.636V30.0941H105.459C104.906 30.0941 104.629 30.256 104.629 30.5799C104.629 30.7215 104.677 30.8322 104.771 30.9119C104.865 30.9917 104.987 31.0316 105.135 31.0316ZM107.4 28.7342L107.415 29.0662C107.617 28.8123 107.88 28.6854 108.206 28.6854C108.764 28.6854 109.046 29.0003 109.051 29.6302V31.3758H108.599V29.6277C108.597 29.4373 108.553 29.2965 108.467 29.2054C108.383 29.1142 108.25 29.0687 108.069 29.0687C107.923 29.0687 107.794 29.1077 107.684 29.1859C107.573 29.264 107.487 29.3665 107.425 29.4935V31.3758H106.973V28.7342H107.4ZM109.622 30.033C109.622 29.6277 109.718 29.3022 109.91 29.0565C110.102 28.8091 110.354 28.6854 110.664 28.6854C110.974 28.6854 111.219 28.7912 111.399 29.0027V27.6258H111.851V31.3758H111.436L111.414 31.0926C111.233 31.3139 110.982 31.4246 110.66 31.4246C110.354 31.4246 110.104 31.2993 109.91 31.0486C109.718 30.798 109.622 30.4708 109.622 30.0672V30.033ZM110.074 30.0843C110.074 30.3838 110.135 30.6181 110.259 30.7874C110.383 30.9567 110.554 31.0413 110.772 31.0413C111.058 31.0413 111.267 30.9127 111.399 30.6556V29.4422C111.264 29.1932 111.057 29.0687 110.777 29.0687C110.555 29.0687 110.383 29.1541 110.259 29.325C110.135 29.4959 110.074 29.749 110.074 30.0843ZM113.045 31.3758H112.593V28.7342H113.045V31.3758ZM112.557 28.0335C112.557 27.9603 112.579 27.8984 112.622 27.848C112.668 27.7975 112.735 27.7723 112.823 27.7723C112.911 27.7723 112.977 27.7975 113.023 27.848C113.068 27.8984 113.091 27.9603 113.091 28.0335C113.091 28.1068 113.068 28.1678 113.023 28.2166C112.977 28.2654 112.911 28.2899 112.823 28.2899C112.735 28.2899 112.668 28.2654 112.622 28.2166C112.579 28.1678 112.557 28.1068 112.557 28.0335ZM114.197 28.7342L114.212 29.0662C114.414 28.8123 114.677 28.6854 115.003 28.6854C115.561 28.6854 115.843 29.0003 115.848 29.6302V31.3758H115.396V29.6277C115.394 29.4373 115.35 29.2965 115.264 29.2054C115.179 29.1142 115.047 29.0687 114.866 29.0687C114.72 29.0687 114.591 29.1077 114.48 29.1859C114.37 29.264 114.283 29.3665 114.222 29.4935V31.3758H113.77V28.7342H114.197ZM116.421 30.033C116.421 29.6212 116.517 29.2941 116.707 29.0516C116.897 28.8074 117.15 28.6854 117.464 28.6854C117.786 28.6854 118.038 28.7993 118.218 29.0272L118.24 28.7342H118.653V31.3123C118.653 31.6541 118.551 31.9235 118.348 32.1204C118.146 32.3174 117.874 32.4158 117.532 32.4158C117.342 32.4158 117.155 32.3751 116.973 32.2938C116.791 32.2124 116.652 32.1009 116.556 31.9593L116.79 31.6883C116.984 31.9276 117.22 32.0472 117.5 32.0472C117.72 32.0472 117.891 31.9853 118.013 31.8616C118.137 31.7379 118.199 31.5638 118.199 31.3392V31.1121C118.018 31.3205 117.771 31.4246 117.459 31.4246C117.15 31.4246 116.899 31.3001 116.707 31.0511C116.517 30.8021 116.421 30.4627 116.421 30.033ZM116.875 30.0843C116.875 30.3821 116.936 30.6165 117.059 30.7874C117.181 30.9567 117.351 31.0413 117.571 31.0413C117.856 31.0413 118.065 30.9119 118.199 30.6531V29.4471C118.06 29.1948 117.853 29.0687 117.576 29.0687C117.356 29.0687 117.185 29.1541 117.061 29.325C116.937 29.4959 116.875 29.749 116.875 30.0843ZM82.1977 36.0306C82.1977 35.7718 82.2481 35.539 82.349 35.3323C82.4516 35.1256 82.5932 34.9661 82.7738 34.8538C82.9561 34.7415 83.1636 34.6854 83.3964 34.6854C83.7561 34.6854 84.0466 34.8099 84.268 35.0589C84.491 35.3079 84.6024 35.6391 84.6024 36.0526V36.0843C84.6024 36.3415 84.5528 36.5726 84.4535 36.7776C84.3559 36.9811 84.2151 37.1398 84.0312 37.2537C83.8489 37.3677 83.6389 37.4246 83.4013 37.4246C83.0432 37.4246 82.7527 37.3001 82.5297 37.0511C82.3083 36.8021 82.1977 36.4725 82.1977 36.0623V36.0306ZM82.6518 36.0843C82.6518 36.3773 82.7193 36.6124 82.8544 36.7899C82.9911 36.9673 83.1734 37.056 83.4013 37.056C83.6308 37.056 83.8131 36.9665 83.9482 36.7874C84.0832 36.6068 84.1508 36.3545 84.1508 36.0306C84.1508 35.7409 84.0816 35.5065 83.9433 35.3275C83.8065 35.1468 83.6243 35.0565 83.3964 35.0565C83.1734 35.0565 82.9936 35.1452 82.8568 35.3226C82.7201 35.5 82.6518 35.7539 82.6518 36.0843ZM86.4457 35.1395C86.3773 35.1281 86.3033 35.1224 86.2235 35.1224C85.9273 35.1224 85.7263 35.2485 85.6205 35.5008V37.3758H85.1689V34.7342H85.6083L85.6156 35.0394C85.7637 34.8034 85.9737 34.6854 86.2455 34.6854C86.3334 34.6854 86.4001 34.6968 86.4457 34.7195V35.1395ZM86.7069 36.033C86.7069 35.6212 86.8022 35.2941 86.9926 35.0516C87.183 34.8074 87.4353 34.6854 87.7494 34.6854C88.0717 34.6854 88.3232 34.7993 88.5038 35.0272L88.5258 34.7342H88.9384V37.3123C88.9384 37.6541 88.8367 37.9235 88.6332 38.1204C88.4314 38.3174 88.1596 38.4158 87.8178 38.4158C87.6273 38.4158 87.441 38.3751 87.2587 38.2938C87.0764 38.2124 86.9372 38.1009 86.8412 37.9593L87.0756 37.6883C87.2693 37.9276 87.5061 38.0472 87.786 38.0472C88.0058 38.0472 88.1767 37.9853 88.2987 37.8616C88.4224 37.7379 88.4843 37.5638 88.4843 37.3392V37.1121C88.3036 37.3205 88.057 37.4246 87.7445 37.4246C87.4353 37.4246 87.1846 37.3001 86.9926 37.0511C86.8022 36.8021 86.7069 36.4627 86.7069 36.033ZM87.161 36.0843C87.161 36.3821 87.2221 36.6165 87.3441 36.7874C87.4662 36.9567 87.6371 37.0413 87.8568 37.0413C88.1417 37.0413 88.3508 36.9119 88.4843 36.6531V35.4471C88.3459 35.1948 88.1384 35.0687 87.8617 35.0687C87.642 35.0687 87.4703 35.1541 87.3466 35.325C87.2229 35.4959 87.161 35.749 87.161 36.0843ZM91.2528 37.3758C91.2268 37.3237 91.2056 37.2309 91.1894 37.0975C90.9794 37.3156 90.7287 37.4246 90.4374 37.4246C90.177 37.4246 89.963 37.3514 89.7953 37.2049C89.6293 37.0568 89.5463 36.8696 89.5463 36.6434C89.5463 36.3683 89.6505 36.1551 89.8588 36.0037C90.0688 35.8507 90.3634 35.7742 90.7426 35.7742H91.182V35.5667C91.182 35.4088 91.1348 35.2835 91.0404 35.1907C90.946 35.0963 90.8069 35.0491 90.623 35.0491C90.4618 35.0491 90.3267 35.0898 90.2177 35.1712C90.1086 35.2526 90.0541 35.3511 90.0541 35.4666H89.6C89.6 35.3348 89.6464 35.2078 89.7392 35.0858C89.8336 34.9621 89.9605 34.8644 90.12 34.7928C90.2812 34.7212 90.4578 34.6854 90.6498 34.6854C90.9542 34.6854 91.1926 34.7619 91.3651 34.9149C91.5377 35.0662 91.6272 35.2754 91.6337 35.5423V36.7581C91.6337 37.0006 91.6646 37.1935 91.7265 37.3367V37.3758H91.2528ZM90.5033 37.0316C90.6449 37.0316 90.7792 36.9949 90.9062 36.9217C91.0331 36.8484 91.1251 36.7532 91.182 36.636V36.0941H90.828C90.2746 36.0941 89.998 36.256 89.998 36.5799C89.998 36.7215 90.0452 36.8322 90.1396 36.9119C90.234 36.9917 90.3552 37.0316 90.5033 37.0316ZM92.769 34.7342L92.7836 35.0662C92.9854 34.8123 93.2491 34.6854 93.5746 34.6854C94.1329 34.6854 94.4145 35.0003 94.4193 35.6302V37.3758H93.9677V35.6277C93.9661 35.4373 93.9221 35.2965 93.8358 35.2054C93.7512 35.1142 93.6186 35.0687 93.4379 35.0687C93.2914 35.0687 93.1628 35.1077 93.0522 35.1859C92.9415 35.264 92.8552 35.3665 92.7934 35.4935V37.3758H92.3417V34.7342H92.769ZM95.5912 37.3758H95.1396V34.7342H95.5912V37.3758ZM95.1029 34.0335C95.1029 33.9603 95.1249 33.8984 95.1689 33.848C95.2144 33.7975 95.2812 33.7723 95.369 33.7723C95.4569 33.7723 95.5237 33.7975 95.5692 33.848C95.6148 33.8984 95.6376 33.9603 95.6376 34.0335C95.6376 34.1068 95.6148 34.1678 95.5692 34.2166C95.5237 34.2654 95.4569 34.2899 95.369 34.2899C95.2812 34.2899 95.2144 34.2654 95.1689 34.2166C95.1249 34.1678 95.1029 34.1068 95.1029 34.0335ZM96.7411 37.0071H98.2865V37.3758H96.1894V37.0438L97.6469 35.1077H96.2113V34.7342H98.2133V35.054L96.7411 37.0071ZM100.428 37.3758C100.402 37.3237 100.38 37.2309 100.364 37.0975C100.154 37.3156 99.9036 37.4246 99.6122 37.4246C99.3518 37.4246 99.1378 37.3514 98.9701 37.2049C98.8041 37.0568 98.7211 36.8696 98.7211 36.6434C98.7211 36.3683 98.8253 36.1551 99.0336 36.0037C99.2436 35.8507 99.5382 35.7742 99.9174 35.7742H100.357V35.5667C100.357 35.4088 100.31 35.2835 100.215 35.1907C100.121 35.0963 99.9817 35.0491 99.7978 35.0491C99.6366 35.0491 99.5015 35.0898 99.3925 35.1712C99.2834 35.2526 99.2289 35.3511 99.2289 35.4666H98.7748C98.7748 35.3348 98.8212 35.2078 98.914 35.0858C99.0084 34.9621 99.1353 34.8644 99.2948 34.7928C99.456 34.7212 99.6326 34.6854 99.8246 34.6854C100.129 34.6854 100.367 34.7619 100.54 34.9149C100.712 35.0662 100.802 35.2754 100.809 35.5423V36.7581C100.809 37.0006 100.839 37.1935 100.901 37.3367V37.3758H100.428ZM99.6781 37.0316C99.8197 37.0316 99.954 36.9949 100.081 36.9217C100.208 36.8484 100.3 36.7532 100.357 36.636V36.0941H100.003C99.4495 36.0941 99.1728 36.256 99.1728 36.5799C99.1728 36.7215 99.22 36.8322 99.3144 36.9119C99.4088 36.9917 99.53 37.0316 99.6781 37.0316ZM102.129 34.0945V34.7342H102.622V35.0833H102.129V36.7215C102.129 36.8273 102.151 36.907 102.195 36.9608C102.239 37.0128 102.314 37.0389 102.42 37.0389C102.472 37.0389 102.544 37.0291 102.635 37.0096V37.3758C102.516 37.4083 102.4 37.4246 102.288 37.4246C102.086 37.4246 101.934 37.3636 101.831 37.2415C101.729 37.1194 101.678 36.9461 101.678 36.7215V35.0833H101.197V34.7342H101.678V34.0945H102.129ZM103.643 37.3758H103.191V34.7342H103.643V37.3758ZM103.155 34.0335C103.155 33.9603 103.177 33.8984 103.221 33.848C103.266 33.7975 103.333 33.7723 103.421 33.7723C103.509 33.7723 103.575 33.7975 103.621 33.848C103.667 33.8984 103.689 33.9603 103.689 34.0335C103.689 34.1068 103.667 34.1678 103.621 34.2166C103.575 34.2654 103.509 34.2899 103.421 34.2899C103.333 34.2899 103.266 34.2654 103.221 34.2166C103.177 34.1678 103.155 34.1068 103.155 34.0335ZM104.248 36.0306C104.248 35.7718 104.299 35.539 104.4 35.3323C104.502 35.1256 104.644 34.9661 104.825 34.8538C105.007 34.7415 105.214 34.6854 105.447 34.6854C105.807 34.6854 106.097 34.8099 106.319 35.0589C106.542 35.3079 106.653 35.6391 106.653 36.0526V36.0843C106.653 36.3415 106.604 36.5726 106.504 36.7776C106.407 36.9811 106.266 37.1398 106.082 37.2537C105.9 37.3677 105.69 37.4246 105.452 37.4246C105.094 37.4246 104.803 37.3001 104.58 37.0511C104.359 36.8021 104.248 36.4725 104.248 36.0623V36.0306ZM104.703 36.0843C104.703 36.3773 104.77 36.6124 104.905 36.7899C105.042 36.9673 105.224 37.056 105.452 37.056C105.682 37.056 105.864 36.9665 105.999 36.7874C106.134 36.6068 106.202 36.3545 106.202 36.0306C106.202 35.7409 106.132 35.5065 105.994 35.3275C105.857 35.1468 105.675 35.0565 105.447 35.0565C105.224 35.0565 105.044 35.1452 104.908 35.3226C104.771 35.5 104.703 35.7539 104.703 36.0843ZM107.647 34.7342L107.662 35.0662C107.863 34.8123 108.127 34.6854 108.453 34.6854C109.011 34.6854 109.292 35.0003 109.297 35.6302V37.3758H108.846V35.6277C108.844 35.4373 108.8 35.2965 108.714 35.2054C108.629 35.1142 108.496 35.0687 108.316 35.0687C108.169 35.0687 108.041 35.1077 107.93 35.1859C107.819 35.264 107.733 35.3665 107.671 35.4935V37.3758H107.22V34.7342H107.647Z" fill="#FF511D"/>
</svg>
